<svg width="53" height="52" viewBox="0 0 53 52" fill="none" xmlns="http://www.w3.org/2000/svg">
<g clip-path="url(#clip0_1_3922)">
<mask id="mask0_1_3922" style="mask-type:luminance" maskUnits="userSpaceOnUse" x="0" y="0" width="53" height="52">
<path d="M52.5 0H0.5V52H52.5V0Z" fill="white"/>
</mask>
<g mask="url(#mask0_1_3922)">
<path d="M0.5 0H52.5V52H0.5V0Z" fill="#F7DF1E"/>
<path d="M14.1727 43.455L18.1521 41.0468C18.9198 42.4079 19.6182 43.5596 21.2933 43.5596C22.899 43.5596 23.9114 42.9315 23.9114 40.4883V23.873H28.7981V40.5574C28.7981 45.6187 25.8313 47.9225 21.5028 47.9225C17.5936 47.9225 15.3245 45.8983 14.1727 43.455Z" fill="black"/>
<path d="M31.4524 42.9314L35.4313 40.6277C36.4787 42.3383 37.8401 43.5947 40.2484 43.5947C42.2732 43.5947 43.5644 42.5823 43.5644 41.1861C43.5644 39.5106 42.238 38.9172 40.004 37.9402L38.7827 37.4163C35.257 35.9156 32.9182 34.0306 32.9182 30.0513C32.9182 26.3862 35.7106 23.5938 40.074 23.5938C43.1806 23.5938 45.4146 24.6759 47.02 27.5033L43.2153 29.9466C42.3775 28.4458 41.4702 27.8525 40.0741 27.8525C38.6429 27.8525 37.7353 28.76 37.7353 29.9466C37.7353 31.4127 38.6429 32.0061 40.737 32.9137L41.9586 33.4373C46.1124 35.2176 48.4512 37.0324 48.4512 41.1162C48.4512 45.5146 44.9956 47.923 40.3532 47.923C35.8155 47.923 32.8833 45.7589 31.4524 42.9314Z" fill="black"/>
</g>
</g>
<defs>
<clipPath id="clip0_1_3922">
<rect width="52" height="52" fill="white" transform="translate(0.5)"/>
</clipPath>
</defs>
</svg>
