<svg width="1216" height="48" viewBox="0 0 1216 48" fill="none" xmlns="http://www.w3.org/2000/svg">
<path d="M13.2775 22.3183C14.0998 19.25 17.2537 16.0961 20.322 15.2739L39.4509 10.1475C42.5192 9.32522 44.34 11.146 43.5177 14.2142L38.3913 33.3432C37.5691 36.4115 34.4152 39.5654 31.3469 40.3877L12.2179 45.514C9.14964 46.3363 7.32889 44.5155 8.15116 41.4473L13.2775 22.3183Z" fill="#9E77ED"/>
<path d="M5.60884 14.6493C6.4311 11.5811 9.585 8.42717 12.6533 7.60491L31.7823 2.47854C34.8505 1.65628 36.6713 3.47702 35.849 6.54529L30.7227 25.6743C29.9004 28.7425 26.7465 31.8964 23.6782 32.7187L4.54923 37.8451C1.48096 38.6673 -0.339793 36.8466 0.482471 33.7783L5.60884 14.6493Z" fill="#6941C6"/>
<path d="M61.292 31.424H67.872V34H58.1V14.54H61.292V31.424Z" fill="white"/>
<path d="M69.4774 26.216C69.4774 24.6667 69.7947 23.2947 70.4294 22.1C71.0827 20.9054 71.9601 19.9814 73.0614 19.328C74.1814 18.656 75.4134 18.32 76.7574 18.32C77.9707 18.32 79.0254 18.5627 79.9214 19.048C80.8361 19.5147 81.5641 20.1027 82.1054 20.812V18.572H85.3254V34H82.1054V31.704C81.5641 32.432 80.8267 33.0387 79.8934 33.524C78.9601 34.0094 77.8961 34.252 76.7014 34.252C75.3761 34.252 74.1627 33.916 73.0614 33.244C71.9601 32.5534 71.0827 31.6014 70.4294 30.388C69.7947 29.156 69.4774 27.7654 69.4774 26.216ZM82.1054 26.272C82.1054 25.208 81.8814 24.284 81.4334 23.5C81.0041 22.716 80.4347 22.1187 79.7254 21.708C79.0161 21.2974 78.2507 21.092 77.4294 21.092C76.6081 21.092 75.8427 21.2974 75.1334 21.708C74.4241 22.1 73.8454 22.688 73.3974 23.472C72.9681 24.2374 72.7534 25.152 72.7534 26.216C72.7534 27.28 72.9681 28.2134 73.3974 29.016C73.8454 29.8187 74.4241 30.4347 75.1334 30.864C75.8614 31.2747 76.6267 31.48 77.4294 31.48C78.2507 31.48 79.0161 31.2747 79.7254 30.864C80.4347 30.4534 81.0041 29.856 81.4334 29.072C81.8814 28.2694 82.1054 27.336 82.1054 26.272Z" fill="white"/>
<path d="M103.406 18.572L93.942 41.252H90.638L93.774 33.748L87.698 18.572H91.254L95.594 30.332L100.102 18.572H103.406Z" fill="white"/>
<path d="M119.955 25.908C119.955 26.4867 119.918 27.0094 119.843 27.476H108.055C108.148 28.708 108.606 29.6974 109.427 30.444C110.248 31.1907 111.256 31.564 112.451 31.564C114.168 31.564 115.382 30.8454 116.091 29.408H119.535C119.068 30.8267 118.219 31.9934 116.987 32.908C115.774 33.804 114.262 34.252 112.451 34.252C110.976 34.252 109.651 33.9254 108.475 33.272C107.318 32.6 106.403 31.6667 105.731 30.472C105.078 29.2587 104.751 27.8587 104.751 26.272C104.751 24.6854 105.068 23.2947 105.703 22.1C106.356 20.8867 107.262 19.9534 108.419 19.3C109.595 18.6467 110.939 18.32 112.451 18.32C113.907 18.32 115.204 18.6374 116.343 19.272C117.482 19.9067 118.368 20.8027 119.003 21.96C119.638 23.0987 119.955 24.4147 119.955 25.908ZM116.623 24.9C116.604 23.724 116.184 22.7814 115.363 22.072C114.542 21.3627 113.524 21.008 112.311 21.008C111.21 21.008 110.267 21.3627 109.483 22.072C108.699 22.7627 108.232 23.7054 108.083 24.9H116.623Z" fill="white"/>
<path d="M126.288 20.812C126.755 20.028 127.371 19.4214 128.136 18.992C128.92 18.544 129.844 18.32 130.908 18.32V21.624H130.096C128.845 21.624 127.893 21.9414 127.24 22.576C126.605 23.2107 126.288 24.312 126.288 25.88V34H123.096V18.572H126.288V20.812Z" fill="white"/>
<path d="M139.442 34.252C138.229 34.252 137.137 34.0374 136.166 33.608C135.214 33.16 134.458 32.5627 133.898 31.816C133.338 31.0507 133.04 30.2014 133.002 29.268H136.306C136.362 29.9214 136.67 30.472 137.23 30.92C137.809 31.3494 138.528 31.564 139.386 31.564C140.282 31.564 140.973 31.396 141.458 31.06C141.962 30.7054 142.214 30.2574 142.214 29.716C142.214 29.1374 141.934 28.708 141.374 28.428C140.833 28.148 139.965 27.84 138.77 27.504C137.613 27.1867 136.67 26.8787 135.942 26.58C135.214 26.2814 134.58 25.824 134.038 25.208C133.516 24.592 133.254 23.78 133.254 22.772C133.254 21.9507 133.497 21.204 133.982 20.532C134.468 19.8414 135.158 19.3 136.054 18.908C136.969 18.516 138.014 18.32 139.19 18.32C140.945 18.32 142.354 18.768 143.418 19.664C144.501 20.5414 145.08 21.7454 145.154 23.276H141.962C141.906 22.5854 141.626 22.0347 141.122 21.624C140.618 21.2134 139.937 21.008 139.078 21.008C138.238 21.008 137.594 21.1667 137.146 21.484C136.698 21.8014 136.474 22.2214 136.474 22.744C136.474 23.1547 136.624 23.5 136.922 23.78C137.221 24.06 137.585 24.284 138.014 24.452C138.444 24.6014 139.078 24.7974 139.918 25.04C141.038 25.3387 141.953 25.6467 142.662 25.964C143.39 26.2627 144.016 26.7107 144.538 27.308C145.061 27.9054 145.332 28.6987 145.35 29.688C145.35 30.5654 145.108 31.3494 144.622 32.04C144.137 32.7307 143.446 33.272 142.55 33.664C141.673 34.056 140.637 34.252 139.442 34.252Z" fill="white"/>
<rect x="238.75" y="19.2" width="9.59998" height="9.59999" fill="#039855"/>
<rect x="267.55" y="28.8" width="9.6" height="9.59999" transform="rotate(180 267.55 28.8)" fill="#027A48"/>
<path d="M248.35 19.2001L257.95 9.6001V19.2001L248.35 28.8001V19.2001Z" fill="#A6F4C5"/>
<path d="M257.95 28.7999L248.35 38.3999L248.35 28.7999L257.95 19.1999L257.95 28.7999Z" fill="#6CE9A6"/>
<path d="M238.75 19.2L257.95 0V9.59999L248.35 19.2H238.75Z" fill="#32D583"/>
<path d="M267.55 28.8L248.35 48L248.35 38.4L257.95 28.8L267.55 28.8Z" fill="#12B76A"/>
<path d="M288.458 34.28C286.946 34.28 285.481 34.0654 284.062 33.636C282.662 33.2067 281.551 32.6374 280.73 31.928L281.99 29.1C282.793 29.7347 283.773 30.2574 284.93 30.668C286.106 31.06 287.282 31.256 288.458 31.256C289.914 31.256 290.997 31.0227 291.706 30.556C292.434 30.0894 292.798 29.4734 292.798 28.708C292.798 28.148 292.593 27.6907 292.182 27.336C291.79 26.9627 291.286 26.6734 290.67 26.468C290.054 26.2627 289.214 26.0294 288.15 25.768C286.657 25.4134 285.443 25.0587 284.51 24.704C283.595 24.3494 282.802 23.7987 282.13 23.052C281.477 22.2867 281.15 21.26 281.15 19.972C281.15 18.8894 281.439 17.9094 282.018 17.032C282.615 16.136 283.502 15.4267 284.678 14.904C285.873 14.3814 287.329 14.12 289.046 14.12C290.241 14.12 291.417 14.2694 292.574 14.568C293.731 14.8667 294.73 15.296 295.57 15.856L294.422 18.684C293.563 18.18 292.667 17.7974 291.734 17.536C290.801 17.2747 289.895 17.144 289.018 17.144C287.581 17.144 286.507 17.3867 285.798 17.872C285.107 18.3574 284.762 19.0014 284.762 19.804C284.762 20.364 284.958 20.8214 285.35 21.176C285.761 21.5307 286.274 21.8107 286.89 22.016C287.506 22.2214 288.346 22.4547 289.41 22.716C290.866 23.052 292.061 23.4067 292.994 23.78C293.927 24.1347 294.721 24.6854 295.374 25.432C296.046 26.1787 296.382 27.1867 296.382 28.456C296.382 29.5387 296.083 30.5187 295.486 31.396C294.907 32.2734 294.021 32.9734 292.826 33.496C291.631 34.0187 290.175 34.28 288.458 34.28Z" fill="white"/>
<path d="M299.655 19.048H303.155V34H299.655V19.048ZM301.419 16.584C300.785 16.584 300.253 16.388 299.823 15.996C299.394 15.5854 299.179 15.0814 299.179 14.484C299.179 13.8867 299.394 13.392 299.823 13C300.253 12.5894 300.785 12.384 301.419 12.384C302.054 12.384 302.586 12.58 303.015 12.972C303.445 13.3454 303.659 13.8214 303.659 14.4C303.659 15.016 303.445 15.5387 303.015 15.968C302.605 16.3787 302.073 16.584 301.419 16.584Z" fill="white"/>
<path d="M312.369 34.196C311.156 34.196 309.97 34.0374 308.813 33.72C307.656 33.4027 306.732 33.0014 306.041 32.516L307.385 29.856C308.057 30.304 308.86 30.668 309.793 30.948C310.745 31.2094 311.678 31.34 312.593 31.34C314.684 31.34 315.729 30.7894 315.729 29.688C315.729 29.1654 315.458 28.8014 314.917 28.596C314.394 28.3907 313.545 28.1947 312.369 28.008C311.137 27.8214 310.129 27.6067 309.345 27.364C308.58 27.1214 307.908 26.7014 307.329 26.104C306.769 25.488 306.489 24.6387 306.489 23.556C306.489 22.1374 307.077 21.008 308.253 20.168C309.448 19.3094 311.053 18.88 313.069 18.88C314.096 18.88 315.122 19.0014 316.149 19.244C317.176 19.468 318.016 19.776 318.669 20.168L317.325 22.828C316.056 22.0814 314.628 21.708 313.041 21.708C312.014 21.708 311.23 21.8667 310.689 22.184C310.166 22.4827 309.905 22.884 309.905 23.388C309.905 23.948 310.185 24.3494 310.745 24.592C311.324 24.816 312.21 25.0307 313.405 25.236C314.6 25.4227 315.58 25.6374 316.345 25.88C317.11 26.1227 317.764 26.5334 318.305 27.112C318.865 27.6907 319.145 28.512 319.145 29.576C319.145 30.976 318.538 32.096 317.325 32.936C316.112 33.776 314.46 34.196 312.369 34.196Z" fill="white"/>
<path d="M335.886 19.048L328.886 35.204C328.232 36.828 327.439 37.9667 326.506 38.62C325.572 39.292 324.443 39.628 323.118 39.628C322.371 39.628 321.634 39.5067 320.906 39.264C320.178 39.0214 319.58 38.6854 319.114 38.256L320.514 35.68C320.85 35.9974 321.242 36.2494 321.69 36.436C322.156 36.6227 322.623 36.716 323.09 36.716C323.706 36.716 324.21 36.5574 324.602 36.24C325.012 35.9227 325.386 35.3907 325.722 34.644L325.974 34.056L319.45 19.048H323.09L327.794 30.108L332.526 19.048H335.886Z" fill="white"/>
<path d="M346.361 18.88C347.817 18.88 349.115 19.1974 350.253 19.832C351.411 20.4667 352.316 21.3627 352.969 22.52C353.623 23.6774 353.949 25.012 353.949 26.524C353.949 28.036 353.623 29.38 352.969 30.556C352.316 31.7134 351.411 32.6094 350.253 33.244C349.115 33.8787 347.817 34.196 346.361 34.196C344.345 34.196 342.749 33.524 341.573 32.18V39.432H338.073V19.048H341.405V21.008C341.984 20.2987 342.693 19.7667 343.533 19.412C344.392 19.0574 345.335 18.88 346.361 18.88ZM345.969 31.2C347.257 31.2 348.312 30.7707 349.133 29.912C349.973 29.0534 350.393 27.924 350.393 26.524C350.393 25.124 349.973 23.9947 349.133 23.136C348.312 22.2774 347.257 21.848 345.969 21.848C345.129 21.848 344.373 22.044 343.701 22.436C343.029 22.8094 342.497 23.3507 342.105 24.06C341.713 24.7694 341.517 25.5907 341.517 26.524C341.517 27.4574 341.713 28.2787 342.105 28.988C342.497 29.6974 343.029 30.248 343.701 30.64C344.373 31.0134 345.129 31.2 345.969 31.2Z" fill="white"/>
<path d="M365.753 18.88C367.638 18.88 369.15 19.4307 370.289 20.532C371.427 21.6334 371.997 23.2667 371.997 25.432V34H368.497V25.88C368.497 24.5734 368.189 23.5934 367.573 22.94C366.957 22.268 366.079 21.932 364.941 21.932C363.653 21.932 362.635 22.324 361.889 23.108C361.142 23.8734 360.769 24.984 360.769 26.44V34H357.269V13.224H360.769V20.784C361.347 20.168 362.057 19.7014 362.897 19.384C363.755 19.048 364.707 18.88 365.753 18.88Z" fill="white"/>
<path d="M390.913 19.048V34H387.581V32.096C387.021 32.768 386.321 33.2907 385.481 33.664C384.641 34.0187 383.735 34.196 382.765 34.196C380.767 34.196 379.19 33.6454 378.033 32.544C376.894 31.424 376.325 29.772 376.325 27.588V19.048H379.825V27.112C379.825 28.456 380.123 29.464 380.721 30.136C381.337 30.7894 382.205 31.116 383.325 31.116C384.575 31.116 385.565 30.7334 386.293 29.968C387.039 29.184 387.413 28.064 387.413 26.608V19.048H390.913Z" fill="white"/>
<path d="M400.115 34.196C398.902 34.196 397.716 34.0374 396.559 33.72C395.402 33.4027 394.478 33.0014 393.787 32.516L395.131 29.856C395.803 30.304 396.606 30.668 397.539 30.948C398.491 31.2094 399.424 31.34 400.339 31.34C402.43 31.34 403.475 30.7894 403.475 29.688C403.475 29.1654 403.204 28.8014 402.663 28.596C402.14 28.3907 401.291 28.1947 400.115 28.008C398.883 27.8214 397.875 27.6067 397.091 27.364C396.326 27.1214 395.654 26.7014 395.075 26.104C394.515 25.488 394.235 24.6387 394.235 23.556C394.235 22.1374 394.823 21.008 395.999 20.168C397.194 19.3094 398.799 18.88 400.815 18.88C401.842 18.88 402.868 19.0014 403.895 19.244C404.922 19.468 405.762 19.776 406.415 20.168L405.071 22.828C403.802 22.0814 402.374 21.708 400.787 21.708C399.76 21.708 398.976 21.8667 398.435 22.184C397.912 22.4827 397.651 22.884 397.651 23.388C397.651 23.948 397.931 24.3494 398.491 24.592C399.07 24.816 399.956 25.0307 401.151 25.236C402.346 25.4227 403.326 25.6374 404.091 25.88C404.856 26.1227 405.51 26.5334 406.051 27.112C406.611 27.6907 406.891 28.512 406.891 29.576C406.891 30.976 406.284 32.096 405.071 32.936C403.858 33.776 402.206 34.196 400.115 34.196Z" fill="white"/>
<path d="M516.214 33.4287C524.893 33.4287 531.929 26.3932 531.929 17.7144C531.929 16.7308 531.838 15.7683 531.665 14.8348C530.732 14.6619 529.769 14.5715 528.786 14.5715C520.107 14.5715 513.071 21.6071 513.071 30.2858C513.071 31.2694 513.162 32.2319 513.335 33.1654C514.268 33.3383 515.231 33.4287 516.214 33.4287Z" fill="#175CD3"/>
<path fill-rule="evenodd" clip-rule="evenodd" d="M513.335 33.1653C506.031 31.8127 500.5 25.4095 500.5 17.7143C500.5 9.03553 507.536 2 516.214 2C523.909 2 530.313 7.53118 531.665 14.8347C530.732 14.6618 529.769 14.5714 528.786 14.5714C520.107 14.5714 513.071 21.607 513.071 30.2857C513.071 31.2693 513.162 32.2318 513.335 33.1653Z" fill="#1570EF"/>
<path fill-rule="evenodd" clip-rule="evenodd" d="M516.214 33.4286C524.893 33.4286 531.928 26.3931 531.928 17.7143C531.928 16.7307 531.838 15.7682 531.665 14.8347C538.969 16.1873 544.5 22.5906 544.5 30.2858C544.5 38.9645 537.464 46 528.786 46C521.09 46 514.687 40.4689 513.335 33.1654C514.268 33.3382 515.231 33.4286 516.214 33.4286Z" fill="#2E90FA"/>
<path d="M574.728 28.9039C574.168 30.7146 573.188 32.0679 571.788 32.9639C570.388 33.8413 568.755 34.2799 566.888 34.2799C565.059 34.2799 563.472 33.8973 562.128 33.1319C560.803 32.3666 559.776 31.2746 559.048 29.8559C558.339 28.4373 557.984 26.7386 557.984 24.7599C557.984 22.7813 558.348 21.0826 559.076 19.6639C559.804 18.2453 560.831 17.1533 562.156 16.3879C563.481 15.6226 565.04 15.2399 566.832 15.2399C568.717 15.2399 570.332 15.6413 571.676 16.4439C573.039 17.2279 573.972 18.4226 574.476 20.0279L570.976 21.5119C570.659 20.3919 570.173 19.5986 569.52 19.1319C568.867 18.6466 568.027 18.4039 567 18.4039C565.469 18.4039 564.247 18.9546 563.332 20.0559C562.436 21.1386 561.988 22.7066 561.988 24.7599C561.988 26.7946 562.417 28.3626 563.276 29.4639C564.135 30.5653 565.376 31.1159 567 31.1159C568.008 31.1159 568.876 30.8453 569.604 30.3039C570.351 29.7626 570.873 28.9413 571.172 27.8399L574.728 28.9039Z" fill="white"/>
<path d="M579.561 17.9839C577.975 17.9839 577.181 17.3026 577.181 15.9399C577.181 14.5586 577.975 13.8679 579.561 13.8679C581.148 13.8679 581.941 14.5586 581.941 15.9399C581.941 17.3026 581.148 17.9839 579.561 17.9839ZM581.465 19.9999V33.9999H577.629V19.9999H581.465Z" fill="white"/>
<path d="M585.532 33.9999V19.9999H588.864L589.116 22.7439C589.47 21.7919 590.002 21.0546 590.712 20.5319C591.44 19.9906 592.354 19.7199 593.456 19.7199C594.109 19.7199 594.613 19.8226 594.968 20.0279L594.52 23.2479C594.333 23.1919 594.1 23.1453 593.82 23.1079C593.558 23.0519 593.213 23.0239 592.784 23.0239C592.205 23.0239 591.654 23.1639 591.132 23.4439C590.628 23.7053 590.208 24.1159 589.872 24.6759C589.536 25.2173 589.368 25.9079 589.368 26.7479V33.9999H585.532Z" fill="white"/>
<path d="M603.427 19.7199C605.293 19.7199 606.74 20.1213 607.767 20.9239C608.812 21.7266 609.503 22.6973 609.839 23.8359L606.255 25.1239C605.881 23.4253 604.957 22.5759 603.483 22.5759C602.419 22.5759 601.588 22.9493 600.991 23.6959C600.412 24.4426 600.123 25.5533 600.123 27.0279C600.123 28.5213 600.421 29.6319 601.019 30.3599C601.635 31.0693 602.465 31.4239 603.511 31.4239C605.135 31.4239 606.105 30.5933 606.423 28.9319L609.895 30.0519C609.577 31.3026 608.868 32.3199 607.767 33.1039C606.684 33.8879 605.275 34.2799 603.539 34.2799C602.083 34.2799 600.804 33.9906 599.703 33.4119C598.62 32.8333 597.78 32.0026 597.183 30.9199C596.585 29.8373 596.287 28.5306 596.287 26.9999C596.287 25.4693 596.585 24.1626 597.183 23.0799C597.799 21.9973 598.639 21.1666 599.703 20.5879C600.785 20.0093 602.027 19.7199 603.427 19.7199Z" fill="white"/>
<path d="M619.259 19.7199C620.659 19.7199 621.901 20.0093 622.983 20.5879C624.066 21.1666 624.906 21.9973 625.503 23.0799C626.119 24.1626 626.427 25.4693 626.427 26.9999C626.427 28.5306 626.119 29.8373 625.503 30.9199C624.906 32.0026 624.066 32.8333 622.983 33.4119C621.901 33.9906 620.659 34.2799 619.259 34.2799C617.841 34.2799 616.59 33.9906 615.507 33.4119C614.443 32.8333 613.603 32.0026 612.987 30.9199C612.39 29.8373 612.091 28.5306 612.091 26.9999C612.091 25.4693 612.39 24.1626 612.987 23.0799C613.603 21.9973 614.443 21.1666 615.507 20.5879C616.59 20.0093 617.841 19.7199 619.259 19.7199ZM619.259 22.5759C618.214 22.5759 617.393 22.9493 616.795 23.6959C616.217 24.4239 615.927 25.5253 615.927 26.9999C615.927 28.4746 616.217 29.5853 616.795 30.3319C617.393 31.0599 618.214 31.4239 619.259 31.4239C620.286 31.4239 621.089 31.0599 621.667 30.3319C622.265 29.5853 622.563 28.4746 622.563 26.9999C622.563 25.5253 622.265 24.4239 621.667 23.6959C621.089 22.9493 620.286 22.5759 619.259 22.5759Z" fill="white"/>
<path d="M636.021 19.7199C637.421 19.7199 638.662 20.0093 639.745 20.5879C640.828 21.1666 641.668 21.9973 642.265 23.0799C642.881 24.1626 643.189 25.4693 643.189 26.9999C643.189 28.5306 642.881 29.8373 642.265 30.9199C641.668 32.0026 640.828 32.8333 639.745 33.4119C638.662 33.9906 637.421 34.2799 636.021 34.2799C634.602 34.2799 633.352 33.9906 632.269 33.4119C631.205 32.8333 630.365 32.0026 629.749 30.9199C629.152 29.8373 628.853 28.5306 628.853 26.9999C628.853 25.4693 629.152 24.1626 629.749 23.0799C630.365 21.9973 631.205 21.1666 632.269 20.5879C633.352 20.0093 634.602 19.7199 636.021 19.7199ZM636.021 22.5759C634.976 22.5759 634.154 22.9493 633.557 23.6959C632.978 24.4239 632.689 25.5253 632.689 26.9999C632.689 28.4746 632.978 29.5853 633.557 30.3319C634.154 31.0599 634.976 31.4239 636.021 31.4239C637.048 31.4239 637.85 31.0599 638.429 30.3319C639.026 29.5853 639.325 28.4746 639.325 26.9999C639.325 25.5253 639.026 24.4239 638.429 23.6959C637.85 22.9493 637.048 22.5759 636.021 22.5759Z" fill="white"/>
<path d="M650.179 13.8679V29.6879C650.179 30.3413 650.291 30.7986 650.515 31.0599C650.739 31.3213 651.112 31.4519 651.635 31.4519C651.952 31.4519 652.213 31.4333 652.419 31.3959C652.624 31.3586 652.885 31.2839 653.203 31.1719L652.867 33.6919C652.549 33.8786 652.148 34.0186 651.663 34.1119C651.196 34.2239 650.729 34.2799 650.263 34.2799C648.9 34.2799 647.901 33.9533 647.267 33.2999C646.651 32.6279 646.343 31.5639 646.343 30.1079V13.8679H650.179Z" fill="white"/>
<path d="M661.836 34.2799C659.634 34.2799 657.87 33.6453 656.544 32.3759C655.219 31.0879 654.556 29.2959 654.556 26.9999C654.556 25.4693 654.855 24.1626 655.452 23.0799C656.05 21.9973 656.88 21.1666 657.944 20.5879C659.027 20.0093 660.259 19.7199 661.64 19.7199C663.059 19.7199 664.263 20.0093 665.252 20.5879C666.242 21.1479 666.998 21.9226 667.52 22.9119C668.043 23.8826 668.304 24.9933 668.304 26.2439C668.304 26.6173 668.295 26.9719 668.276 27.3079C668.258 27.6439 668.23 27.9426 668.192 28.2039H658.308C658.458 29.2866 658.831 30.0986 659.428 30.6399C660.044 31.1626 660.838 31.4239 661.808 31.4239C662.63 31.4239 663.292 31.2653 663.796 30.9479C664.3 30.6306 664.692 30.1919 664.972 29.6319L668.024 30.8079C667.576 31.9093 666.792 32.7679 665.672 33.3839C664.552 33.9813 663.274 34.2799 661.836 34.2799ZM661.612 22.5479C659.802 22.5479 658.71 23.5466 658.336 25.5439H664.636C664.524 24.5733 664.207 23.8359 663.684 23.3319C663.18 22.8093 662.49 22.5479 661.612 22.5479Z" fill="white"/>
<path d="M677.155 34.2799C675.736 34.2799 674.439 34.0279 673.263 33.5239C672.106 33.0199 671.163 32.3106 670.435 31.3959L672.647 29.1559C673.095 29.8279 673.692 30.3786 674.439 30.8079C675.186 31.2373 676.072 31.4519 677.099 31.4519C677.827 31.4519 678.406 31.3493 678.835 31.1439C679.283 30.9199 679.507 30.5746 679.507 30.1079C679.507 29.8093 679.404 29.5573 679.199 29.3519C678.994 29.1279 678.583 28.9506 677.967 28.8199L675.503 28.3159C673.879 27.9799 672.722 27.4759 672.031 26.8039C671.359 26.1133 671.023 25.2266 671.023 24.1439C671.023 23.3786 671.247 22.6599 671.695 21.9879C672.162 21.3159 672.852 20.7746 673.767 20.3639C674.682 19.9346 675.82 19.7199 677.183 19.7199C680.02 19.7199 682.055 20.5879 683.287 22.3239L680.991 24.5639C680.58 23.9106 680.039 23.4159 679.367 23.0799C678.714 22.7253 678.023 22.5479 677.295 22.5479C675.652 22.5479 674.831 23.0053 674.831 23.9199C674.831 24.2186 674.962 24.4799 675.223 24.7039C675.484 24.9093 675.96 25.0866 676.651 25.2359L679.507 25.8239C680.888 26.1039 681.878 26.5799 682.475 27.2519C683.072 27.9053 683.371 28.6986 683.371 29.6319C683.371 30.9759 682.83 32.0866 681.747 32.9639C680.683 33.8413 679.152 34.2799 677.155 34.2799Z" fill="white"/>
<path d="M798.25 2C786.1 2 776.25 11.8497 776.25 24C776.25 36.1503 786.1 46 798.25 46C809.151 46 818.2 38.0716 819.946 27.6667H819.788C818.16 33.9925 812.417 38.6667 805.583 38.6667C797.483 38.6667 790.917 32.1002 790.917 24C790.917 15.8998 797.483 9.33333 805.583 9.33333C812.417 9.33333 818.16 14.0075 819.788 20.3333H819.946C818.2 9.92838 809.151 2 798.25 2Z" fill="#A4BCFD"/>
<path d="M776.25 24C776.25 11.8497 786.1 2 798.25 2C809.151 2 818.2 9.92838 819.946 20.3333H805.121C803.493 14.0075 797.751 9.33333 790.917 9.33333C782.816 9.33333 776.25 15.8998 776.25 24Z" fill="#3538CD"/>
<path d="M776.25 24C776.25 36.1503 786.1 46 798.25 46C809.151 46 818.2 38.0716 819.946 27.6667H805.121C803.493 33.9925 797.751 38.6667 790.917 38.6667C782.816 38.6667 776.25 32.1002 776.25 24Z" fill="#3538CD"/>
<path d="M851.689 20.5071C851.062 15.9829 847.582 13.3579 843.068 13.3579C837.749 13.3579 833.741 17.2358 833.741 23.8181C833.741 30.3906 837.699 34.2784 843.068 34.2784C847.91 34.2784 851.122 31.1463 851.689 27.2585L847.97 27.2386C847.503 29.625 845.554 30.9673 843.118 30.9673C839.817 30.9673 837.45 28.4914 837.45 23.8181C837.45 19.2244 839.797 16.669 843.128 16.669C845.604 16.669 847.543 18.071 847.97 20.5071H851.689Z" fill="white"/>
<path d="M859.303 34.3082C861.699 34.3082 863.131 33.1846 863.787 31.9019H863.907V34H867.367V23.7784C867.367 19.7414 864.076 18.5284 861.162 18.5284C857.951 18.5284 855.485 19.9602 854.689 22.7443L858.05 23.2215C858.408 22.1775 859.422 21.2826 861.182 21.2826C862.853 21.2826 863.767 22.1377 863.767 23.6392V23.6988C863.767 24.7329 862.684 24.7826 859.989 25.071C857.026 25.3892 854.192 26.2741 854.192 29.7144C854.192 32.7173 856.39 34.3082 859.303 34.3082ZM860.238 31.6633C858.736 31.6633 857.662 30.9772 857.662 29.6548C857.662 28.2727 858.865 27.696 860.476 27.4673C861.421 27.338 863.31 27.0994 863.777 26.7215V28.5213C863.777 30.2215 862.405 31.6633 860.238 31.6633Z" fill="white"/>
<path d="M878.613 18.7272H875.6V15.0681H872V18.7272H869.833V21.5113H872V30.0028C871.98 32.8764 874.069 34.2883 876.773 34.2088C877.797 34.1789 878.503 33.9801 878.891 33.8508L878.284 31.0369C878.086 31.0866 877.678 31.1761 877.23 31.1761C876.326 31.1761 875.6 30.8579 875.6 29.4062V21.5113H878.613V18.7272Z" fill="white"/>
<path d="M886.018 34.3082C888.414 34.3082 889.846 33.1846 890.502 31.9019H890.621V34H894.082V23.7784C894.082 19.7414 890.79 18.5284 887.877 18.5284C884.665 18.5284 882.2 19.9602 881.404 22.7443L884.765 23.2215C885.123 22.1775 886.137 21.2826 887.897 21.2826C889.567 21.2826 890.482 22.1377 890.482 23.6392V23.6988C890.482 24.7329 889.398 24.7826 886.704 25.071C883.741 25.3892 880.907 26.2741 880.907 29.7144C880.907 32.7173 883.104 34.3082 886.018 34.3082ZM886.952 31.6633C885.451 31.6633 884.377 30.9772 884.377 29.6548C884.377 28.2727 885.58 27.696 887.191 27.4673C888.136 27.338 890.025 27.0994 890.492 26.7215V28.5213C890.492 30.2215 889.12 31.6633 886.952 31.6633Z" fill="white"/>
<path d="M901.3 13.6363H897.701V34H901.3V13.6363Z" fill="white"/>
<path d="M911.664 34.2983C916.138 34.2983 918.982 31.1463 918.982 26.4233C918.982 21.6903 916.138 18.5284 911.664 18.5284C907.189 18.5284 904.345 21.6903 904.345 26.4233C904.345 31.1463 907.189 34.2983 911.664 34.2983ZM911.684 31.4147C909.208 31.4147 907.995 29.2073 907.995 26.4133C907.995 23.6193 909.208 21.3821 911.684 21.3821C914.12 21.3821 915.333 23.6193 915.333 26.4133C915.333 29.2073 914.12 31.4147 911.684 31.4147Z" fill="white"/>
<path d="M928.679 40.0454C932.805 40.0454 935.848 38.1562 935.848 34.2485V18.7272H932.298V21.2528H932.099C931.553 20.1491 930.409 18.5284 927.714 18.5284C924.185 18.5284 921.41 21.2926 921.41 26.3139C921.41 31.2954 924.185 33.7812 927.704 33.7812C930.32 33.7812 931.543 32.3792 932.099 31.2556H932.278V34.1491C932.278 36.3963 930.787 37.321 928.739 37.321C926.571 37.321 925.616 36.2968 925.179 35.4019L921.937 36.1875C922.594 38.3252 924.791 40.0454 928.679 40.0454ZM928.709 30.9573C926.332 30.9573 925.079 29.1079 925.079 26.294C925.079 23.5198 926.312 21.4815 928.709 21.4815C931.026 21.4815 932.298 23.4005 932.298 26.294C932.298 29.2073 931.006 30.9573 928.709 30.9573Z" fill="white"/>
<path fill-rule="evenodd" clip-rule="evenodd" d="M1051 36.4667C1057.89 36.4667 1063.47 30.8851 1063.47 24C1063.47 17.1149 1057.89 11.5333 1051 11.5333C1044.11 11.5333 1038.53 17.1149 1038.53 24C1038.53 30.8851 1044.11 36.4667 1051 36.4667ZM1051 46C1063.15 46 1073 36.1503 1073 24C1073 11.8497 1063.15 2 1051 2C1038.85 2 1029 11.8497 1029 24C1029 36.1503 1038.85 46 1051 46Z" fill="#6938EF"/>
<path d="M1051.25 24.4816C1053.54 22.1905 1057.26 22.1905 1059.55 24.4816L1070.96 35.8896C1073.25 38.1807 1073.25 41.8952 1070.96 44.1863C1068.67 46.4774 1064.95 46.4774 1062.66 44.1863L1051.25 32.7783C1048.96 30.4873 1048.96 26.7727 1051.25 24.4816Z" fill="#F670C7"/>
<path d="M1054.45 35.9818L1061.7 43.2271C1065.18 41.289 1068.07 38.436 1070.06 34.9938L1062.87 27.8079C1061.61 31.7473 1058.44 34.8336 1054.45 35.9818Z" fill="#6519BA"/>
<path d="M1108.52 36.1001C1107.89 36.8841 1107.11 37.4814 1106.2 37.8921C1105.3 38.3028 1104.31 38.5081 1103.23 38.5081C1101.77 38.5081 1100.46 38.1908 1099.28 37.5561C1098.1 36.9401 1096.76 35.8388 1095.25 34.2521C1093.47 34.0281 1091.89 33.4588 1090.49 32.5441C1089.11 31.6294 1088.02 30.4534 1087.24 29.0161C1086.47 27.5601 1086.09 25.9548 1086.09 24.2001C1086.09 22.2774 1086.55 20.5508 1087.46 19.0201C1088.4 17.4708 1089.68 16.2574 1091.3 15.3801C1092.94 14.5028 1094.78 14.0641 1096.82 14.0641C1098.85 14.0641 1100.68 14.5028 1102.3 15.3801C1103.93 16.2574 1105.21 17.4708 1106.14 19.0201C1107.07 20.5508 1107.54 22.2774 1107.54 24.2001C1107.54 26.4774 1106.9 28.4748 1105.61 30.1921C1104.34 31.9094 1102.65 33.1041 1100.54 33.7761C1101.01 34.2614 1101.45 34.6068 1101.88 34.8121C1102.33 35.0361 1102.81 35.1481 1103.31 35.1481C1104.53 35.1481 1105.59 34.6628 1106.5 33.6921L1108.52 36.1001ZM1090.68 24.2001C1090.68 25.4134 1090.95 26.4961 1091.47 27.4481C1092.01 28.4001 1092.75 29.1468 1093.68 29.6881C1094.61 30.2108 1095.66 30.4721 1096.82 30.4721C1097.97 30.4721 1099.02 30.2108 1099.95 29.6881C1100.89 29.1468 1101.61 28.4001 1102.14 27.4481C1102.68 26.4961 1102.95 25.4134 1102.95 24.2001C1102.95 22.9868 1102.68 21.9041 1102.14 20.9521C1101.61 20.0001 1100.89 19.2628 1099.95 18.7401C1099.02 18.1988 1097.97 17.9281 1096.82 17.9281C1095.66 17.9281 1094.61 18.1988 1093.68 18.7401C1092.75 19.2628 1092.01 20.0001 1091.47 20.9521C1090.95 21.9041 1090.68 22.9868 1090.68 24.2001Z" fill="white"/>
<path d="M1125.82 18.9361V34.0001H1121.67V32.2081C1121.09 32.8614 1120.4 33.3654 1119.6 33.7201C1118.8 34.0561 1117.93 34.2241 1117 34.2241C1115.02 34.2241 1113.45 33.6548 1112.29 32.5161C1111.14 31.3774 1110.56 29.6881 1110.56 27.4481V18.9361H1114.93V26.8041C1114.93 29.2308 1115.94 30.4441 1117.98 30.4441C1119.02 30.4441 1119.86 30.1081 1120.5 29.4361C1121.13 28.7454 1121.45 27.7281 1121.45 26.3841V18.9361H1125.82Z" fill="white"/>
<path d="M1137.03 34.2241C1135.45 34.2241 1134.02 33.8974 1132.75 33.2441C1131.5 32.5721 1130.52 31.6481 1129.81 30.4721C1129.1 29.2961 1128.74 27.9614 1128.74 26.4681C1128.74 24.9748 1129.1 23.6401 1129.81 22.4641C1130.52 21.2881 1131.5 20.3734 1132.75 19.7201C1134.02 19.0481 1135.45 18.7121 1137.03 18.7121C1138.62 18.7121 1140.04 19.0481 1141.29 19.7201C1142.54 20.3734 1143.52 21.2881 1144.23 22.4641C1144.94 23.6401 1145.29 24.9748 1145.29 26.4681C1145.29 27.9614 1144.94 29.2961 1144.23 30.4721C1143.52 31.6481 1142.54 32.5721 1141.29 33.2441C1140.04 33.8974 1138.62 34.2241 1137.03 34.2241ZM1137.03 30.6401C1138.15 30.6401 1139.07 30.2668 1139.78 29.5201C1140.5 28.7548 1140.87 27.7374 1140.87 26.4681C1140.87 25.1988 1140.5 24.1908 1139.78 23.4441C1139.07 22.6788 1138.15 22.2961 1137.03 22.2961C1135.91 22.2961 1134.99 22.6788 1134.26 23.4441C1133.53 24.1908 1133.17 25.1988 1133.17 26.4681C1133.17 27.7374 1133.53 28.7548 1134.26 29.5201C1134.99 30.2668 1135.91 30.6401 1137.03 30.6401Z" fill="white"/>
<path d="M1157.93 33.2721C1157.5 33.5894 1156.97 33.8321 1156.33 34.0001C1155.72 34.1494 1155.06 34.2241 1154.37 34.2241C1152.58 34.2241 1151.19 33.7668 1150.2 32.8521C1149.23 31.9374 1148.74 30.5934 1148.74 28.8201V22.6321H1146.42V19.2721H1148.74V15.6041H1153.11V19.2721H1156.86V22.6321H1153.11V28.7641C1153.11 29.3988 1153.27 29.8934 1153.59 30.2481C1153.92 30.5841 1154.39 30.7521 1154.99 30.7521C1155.68 30.7521 1156.27 30.5654 1156.75 30.1921L1157.93 33.2721Z" fill="white"/>
<path d="M1160.38 18.9361H1164.75V34.0001H1160.38V18.9361ZM1162.56 16.8361C1161.76 16.8361 1161.11 16.6028 1160.6 16.1361C1160.1 15.6694 1159.85 15.0908 1159.85 14.4001C1159.85 13.7094 1160.1 13.1308 1160.6 12.6641C1161.11 12.1974 1161.76 11.9641 1162.56 11.9641C1163.37 11.9641 1164.02 12.1881 1164.52 12.6361C1165.03 13.0841 1165.28 13.6441 1165.28 14.3161C1165.28 15.0441 1165.03 15.6508 1164.52 16.1361C1164.02 16.6028 1163.37 16.8361 1162.56 16.8361Z" fill="white"/>
<path d="M1183.56 26.5241C1183.56 26.5801 1183.53 26.9721 1183.47 27.7001H1172.08C1172.28 28.6334 1172.77 29.3708 1173.53 29.9121C1174.3 30.4534 1175.25 30.7241 1176.39 30.7241C1177.17 30.7241 1177.86 30.6121 1178.46 30.3881C1179.08 30.1454 1179.65 29.7721 1180.17 29.2681L1182.49 31.7881C1181.07 33.4121 1179 34.2241 1176.28 34.2241C1174.58 34.2241 1173.08 33.8974 1171.77 33.2441C1170.46 32.5721 1169.45 31.6481 1168.75 30.4721C1168.04 29.2961 1167.68 27.9614 1167.68 26.4681C1167.68 24.9934 1168.03 23.6681 1168.72 22.4921C1169.43 21.2974 1170.39 20.3734 1171.6 19.7201C1172.83 19.0481 1174.21 18.7121 1175.72 18.7121C1177.19 18.7121 1178.53 19.0294 1179.72 19.6641C1180.92 20.2988 1181.85 21.2134 1182.52 22.4081C1183.21 23.5841 1183.56 24.9561 1183.56 26.5241ZM1175.75 22.0161C1174.76 22.0161 1173.93 22.2961 1173.25 22.8561C1172.58 23.4161 1172.17 24.1814 1172.02 25.1521H1179.44C1179.29 24.2001 1178.88 23.4441 1178.21 22.8841C1177.54 22.3054 1176.72 22.0161 1175.75 22.0161Z" fill="white"/>
<path d="M1195.62 18.7121C1197.49 18.7121 1198.99 19.2721 1200.13 20.3921C1201.29 21.5121 1201.87 23.1734 1201.87 25.3761V34.0001H1197.5V26.0481C1197.5 24.8534 1197.24 23.9668 1196.71 23.3881C1196.19 22.7908 1195.43 22.4921 1194.45 22.4921C1193.34 22.4921 1192.47 22.8374 1191.81 23.5281C1191.16 24.2001 1190.83 25.2081 1190.83 26.5521V34.0001H1186.47V18.9361H1190.64V20.7001C1191.22 20.0654 1191.93 19.5801 1192.79 19.2441C1193.65 18.8894 1194.59 18.7121 1195.62 18.7121Z" fill="white"/>
<path d="M1215.54 33.2721C1215.11 33.5894 1214.58 33.8321 1213.94 34.0001C1213.33 34.1494 1212.68 34.2241 1211.98 34.2241C1210.19 34.2241 1208.8 33.7668 1207.81 32.8521C1206.84 31.9374 1206.36 30.5934 1206.36 28.8201V22.6321H1204.03V19.2721H1206.36V15.6041H1210.72V19.2721H1214.48V22.6321H1210.72V28.7641C1210.72 29.3988 1210.88 29.8934 1211.2 30.2481C1211.54 30.5841 1212 30.7521 1212.6 30.7521C1213.29 30.7521 1213.88 30.5654 1214.36 30.1921L1215.54 33.2721Z" fill="white"/>
</svg>
